<?xml version="1.0" encoding="UTF-8" standalone="no"?>
<!-- Created with Inkscape (http://www.inkscape.org/) -->

<svg
        width="512"
        height="512"
        viewBox="0 0 135.46667 135.46667"
        version="1.1"
        id="svg1"
        xml:space="preserve"
        xmlns="http://www.w3.org/2000/svg"
><defs
     id="defs1" />
    <g
            id="layer1"><path
       style="fill:#000000;stroke-width:0.976777"
       d="M 25.722106,116.67527 C 16.61775,116.10341 8.6996161,113.25098 4.879456,109.16693 -0.72743562,103.1727 1.0031348,94.988465 8.7368412,90.924522 c 2.5946398,-1.36345 4.1194188,-1.844846 9.2019878,-2.905219 11.270039,-2.351257 16.118241,-3.721854 17.38229,-4.914006 1.333084,-1.257262 1.19586,-1.945652 -0.747451,-3.74958 -1.568765,-1.456242 -1.615249,-1.536817 -1.615249,-2.799979 0,-1.688151 0.703402,-2.481228 2.166658,-2.44286 2.069141,0.05431 5.365087,2.572361 6.534353,4.992256 0.850178,1.759514 0.937078,4.220955 0.208785,5.91392 -0.798237,1.855551 -3.154538,3.984668 -5.801191,5.241862 -2.612081,1.240775 -4.882906,1.88837 -12.94305,3.691077 -3.545992,0.793097 -7.21317,1.676292 -8.149281,1.962654 -3.886218,1.18885 -5.8244764,3.499579 -5.2964416,6.314243 0.2529176,1.34817 2.2099106,3.35452 4.1970426,4.30289 2.273395,1.085 6.797968,2.19032 10.541021,2.57511 3.812887,0.39198 13.030006,0.18322 17.070617,-0.38663 5.653793,-0.79734 24.906227,-4.56333 38.269706,-7.48597 l 7.773813,-1.700151 h 4.566681 c 5.486761,0 5.600449,0.05205 5.600449,2.565641 0,1.83982 -0.470095,2.34284 -2.624648,2.80852 -0.759642,0.16419 -8.475337,1.86554 -17.145991,3.7808 -26.647559,5.88618 -34.092394,7.32542 -40.782953,7.88415 -3.040856,0.25394 -8.260866,0.30057 -11.421883,0.10202 z M 57.639418,95.399103 c -0.435801,-0.43581 -0.516879,-0.861471 -0.516879,-2.713622 0,-3.037905 0.322694,-3.306812 4.264255,-3.553469 l 1.033758,-0.06466 0.07339,-2.624639 c 0.05703,-2.039741 0.166658,-2.702067 0.491933,-2.972058 0.344501,-0.285944 6.043228,-0.359553 32.206229,-0.41604 28.250976,-0.06095 31.855176,-0.02442 32.394526,0.329008 0.55846,0.365921 0.60685,0.573702 0.60685,2.605406 0,2.968552 0.15186,3.20755 2.03805,3.20755 3.01582,0 3.64764,0.630834 3.64764,3.642063 0,1.575722 -0.0817,1.890362 -0.63437,2.443015 l -0.63434,0.63435 H 95.383374 c -36.882491,0 -37.231862,-0.0049 -37.743956,-0.516873 z M 70.709083,79.22815 c -0.357424,-0.357424 -0.406116,-1.831326 -0.406116,-12.292878 0,-7.699617 0.09426,-12.062845 0.26753,-12.386648 0.243248,-0.454516 0.569756,-0.499896 3.597023,-0.499896 1.831219,0 3.51344,0.07062 3.738285,0.156871 0.364856,0.14001 0.408792,1.48156 0.408792,12.482646 0,9.242119 -0.07756,12.403351 -0.310127,12.635893 -0.208729,0.208729 -1.38573,0.310128 -3.599699,0.310128 -2.645933,0 -3.369034,-0.07951 -3.695688,-0.406116 z m 14.214184,0 c -0.357608,-0.35761 -0.406115,-1.848576 -0.406115,-12.482646 0,-9.048258 0.07775,-12.154282 0.310127,-12.386648 0.209647,-0.209647 1.407063,-0.310128 3.695688,-0.310128 2.288625,0 3.48604,0.100481 3.695687,0.310128 0.232464,0.232463 0.310128,3.369188 0.310128,12.525242 0,11.812215 -0.0165,12.223928 -0.499887,12.482638 -0.274934,0.147141 -1.894798,0.26753 -3.599699,0.26753 -2.473413,0 -3.181872,-0.08205 -3.505929,-0.406116 z m 14.118197,0.09601 c -0.446623,-0.446623 -0.446623,-24.51866 0,-24.965282 0.209645,-0.209647 1.407056,-0.310128 3.695696,-0.310128 2.28863,0 3.48604,0.100481 3.69569,0.310128 0.23245,0.232464 0.31013,3.369188 0.31013,12.525243 0,11.812214 -0.0165,12.223927 -0.4999,12.482637 -0.71936,0.384988 -6.810057,0.348964 -7.201616,-0.04259 z m 14.214196,0 c -0.23255,-0.232542 -0.31013,-3.393774 -0.31013,-12.635893 0,-11.001085 0.0439,-12.342635 0.40879,-12.482646 0.53214,-0.204196 6.40346,-0.204196 6.9356,0 0.36487,0.140011 0.40881,1.481561 0.40881,12.482646 0,9.242119 -0.0775,12.403351 -0.31013,12.635893 -0.2084,0.208397 -1.37836,0.310128 -3.56647,0.310128 -2.18813,0 -3.35808,-0.101731 -3.56647,-0.310128 z M 23.481258,77.909457 C 22.78663,77.725666 14.827323,67.603175 11.628777,62.835716 6.1668484,54.694652 2.6777864,47.409172 1.7976215,42.307351 1.4181238,40.107621 1.6205654,35.948423 2.2198787,33.632018 4.2193205,25.903975 10.633174,19.523392 18.485793,17.450477 c 2.777795,-0.733276 8.368816,-0.677924 11.101322,0.109905 7.988557,2.30324 14.280392,8.765177 16.151841,16.588519 1.593682,6.662169 -0.06185,13.309403 -5.707381,22.916055 -3.953359,6.727183 -13.315468,19.591449 -14.995445,20.604887 -0.700755,0.422732 -0.803155,0.438516 -1.554872,0.239614 z m 4.761318,-29.092393 c 2.050419,-0.94397 4.14864,-2.997905 5.158882,-5.049993 0.686435,-1.394344 0.840127,-2.044392 0.930557,-3.93579 0.214615,-4.488863 -1.796289,-7.881894 -5.855627,-9.880299 -1.601176,-0.788256 -1.882182,-0.84166 -4.428707,-0.84166 -2.422316,0 -2.883646,0.07711 -4.227278,0.706572 -2.89882,1.358047 -4.711873,3.351284 -5.687487,6.252731 -0.535387,1.592221 -0.553399,4.542938 -0.03832,6.277407 0.899053,3.027442 3.517917,5.721978 6.643281,6.835253 2.035533,0.725065 5.504299,0.556716 7.504699,-0.364221 z m 34.539328,1.194182 c -0.488848,-0.589028 -0.626064,-3.723418 -0.187348,-4.279508 0.598263,-0.758325 31.817448,-19.181221 32.683228,-19.286849 0.685601,-0.08365 2.898742,1.147446 14.343406,7.978741 7.44299,4.442709 14.52124,8.659929 15.72945,9.371591 3.19558,1.882285 3.10128,1.76303 3.10128,3.921764 0,1.471968 -0.0982,1.947094 -0.47263,2.2859 -0.43445,0.393174 -3.07204,0.427723 -32.66098,0.427723 -29.378005,0 -32.218755,-0.03663 -32.536406,-0.419362 z"
       id="path1" /></g></svg>
